<?xml version="1.0" encoding="UTF-8" standalone="no"?>
<!DOCTYPE svg PUBLIC "-//W3C//DTD SVG 1.1//EN"
 "http://www.w3.org/Graphics/SVG/1.1/DTD/svg11.dtd">
<!-- Generated by graphviz version 2.43.0 (0)
 -->
<!-- Title: sourcetree Pages: 1 -->
<svg width="591pt" height="260pt"
 viewBox="0.00 0.00 590.50 260.00" xmlns="http://www.w3.org/2000/svg" xmlns:xlink="http://www.w3.org/1999/xlink">
<g id="graph0" class="graph" transform="scale(1 1) rotate(0) translate(4 256)">
<title>sourcetree</title>
<polygon fill="white" stroke="transparent" points="-4,4 -4,-256 586.5,-256 586.5,4 -4,4"/>
<!-- mulle&#45;fprintf -->
<g id="node1" class="node">
<title>mulle&#45;fprintf</title>
<polygon fill="yellow" stroke="black" points="412,-252 305,-252 305,-216 412,-216 412,-252"/>
<text text-anchor="middle" x="358.5" y="-230.3" font-family="Times,serif" font-size="14.00">mulle&#45;fprintf</text>
</g>
<!-- mulle&#45;sprintf -->
<g id="node6" class="node">
<title>mulle&#45;sprintf</title>
<g id="a_node6"><a xlink:href="https://github.com/mulle-core/mulle-sprintf" xlink:title="mulle&#45;sprintf">
<polygon fill="lightgrey" stroke="black" points="413,-180 304,-180 304,-144 413,-144 413,-180"/>
<text text-anchor="middle" x="358.5" y="-158.3" font-family="Times,serif" font-size="14.00">mulle&#45;sprintf</text>
</a>
</g>
</g>
<!-- mulle&#45;fprintf&#45;&gt;mulle&#45;sprintf -->
<g id="edge3" class="edge">
<title>mulle&#45;fprintf&#45;&gt;mulle&#45;sprintf</title>
<path fill="none" stroke="black" d="M358.5,-215.7C358.5,-207.98 358.5,-198.71 358.5,-190.11"/>
<polygon fill="black" stroke="black" points="362,-190.1 358.5,-180.1 355,-190.1 362,-190.1"/>
</g>
<!-- mintomic -->
<g id="node2" class="node">
<title>mintomic</title>
<g id="a_node2"><a xlink:href="https://github.com/mulle-concurrent/mintomic" xlink:title="mintomic">
<polygon fill="lightgrey" stroke="black" points="344,-36 261,-36 261,0 344,0 344,-36"/>
<text text-anchor="middle" x="302.5" y="-14.3" font-family="Times,serif" font-size="14.00">mintomic</text>
</a>
</g>
</g>
<!-- mulle&#45;allocator -->
<g id="node3" class="node">
<title>mulle&#45;allocator</title>
<g id="a_node3"><a xlink:href="https://github.com/mulle-c/mulle-allocator" xlink:title="mulle&#45;allocator">
<polygon fill="lightgrey" stroke="black" points="123,-36 0,-36 0,0 123,0 123,-36"/>
<text text-anchor="middle" x="61.5" y="-14.3" font-family="Times,serif" font-size="14.00">mulle&#45;allocator</text>
</a>
</g>
</g>
<!-- mulle&#45;buffer -->
<g id="node4" class="node">
<title>mulle&#45;buffer</title>
<g id="a_node4"><a xlink:href="https://github.com/mulle-c/mulle-buffer" xlink:title="mulle&#45;buffer">
<polygon fill="lightgrey" stroke="black" points="230.5,-108 126.5,-108 126.5,-72 230.5,-72 230.5,-108"/>
<text text-anchor="middle" x="178.5" y="-86.3" font-family="Times,serif" font-size="14.00">mulle&#45;buffer</text>
</a>
</g>
</g>
<!-- mulle&#45;buffer&#45;&gt;mulle&#45;allocator -->
<g id="edge1" class="edge">
<title>mulle&#45;buffer&#45;&gt;mulle&#45;allocator</title>
<path fill="none" stroke="black" d="M149.88,-71.88C134.58,-62.72 115.56,-51.34 99.08,-41.48"/>
<polygon fill="black" stroke="black" points="100.61,-38.32 90.23,-36.19 97.02,-44.33 100.61,-38.32"/>
</g>
<!-- mulle&#45;data -->
<g id="node5" class="node">
<title>mulle&#45;data</title>
<g id="a_node5"><a xlink:href="https://github.com/mulle-c/mulle-data" xlink:title="mulle&#45;data">
<polygon fill="lightgrey" stroke="black" points="233.5,-36 141.5,-36 141.5,0 233.5,0 233.5,-36"/>
<text text-anchor="middle" x="187.5" y="-14.3" font-family="Times,serif" font-size="14.00">mulle&#45;data</text>
</a>
</g>
</g>
<!-- mulle&#45;buffer&#45;&gt;mulle&#45;data -->
<g id="edge2" class="edge">
<title>mulle&#45;buffer&#45;&gt;mulle&#45;data</title>
<path fill="none" stroke="black" d="M180.72,-71.7C181.72,-63.98 182.91,-54.71 184.01,-46.11"/>
<polygon fill="black" stroke="black" points="187.5,-46.47 185.3,-36.1 180.55,-45.58 187.5,-46.47"/>
</g>
<!-- mulle&#45;sprintf&#45;&gt;mulle&#45;buffer -->
<g id="edge4" class="edge">
<title>mulle&#45;sprintf&#45;&gt;mulle&#45;buffer</title>
<path fill="none" stroke="black" d="M314.47,-143.88C289.53,-134.18 258.16,-121.98 231.84,-111.74"/>
<polygon fill="black" stroke="black" points="232.98,-108.43 222.39,-108.07 230.44,-114.95 232.98,-108.43"/>
</g>
<!-- mulle&#45;thread -->
<g id="node7" class="node">
<title>mulle&#45;thread</title>
<g id="a_node7"><a xlink:href="https://github.com/mulle-concurrent/mulle-thread" xlink:title="mulle&#45;thread">
<polygon fill="lightgrey" stroke="black" points="356.5,-108 248.5,-108 248.5,-72 356.5,-72 356.5,-108"/>
<text text-anchor="middle" x="302.5" y="-86.3" font-family="Times,serif" font-size="14.00">mulle&#45;thread</text>
</a>
</g>
</g>
<!-- mulle&#45;sprintf&#45;&gt;mulle&#45;thread -->
<g id="edge5" class="edge">
<title>mulle&#45;sprintf&#45;&gt;mulle&#45;thread</title>
<path fill="none" stroke="black" d="M344.66,-143.7C338.01,-135.39 329.92,-125.28 322.61,-116.14"/>
<polygon fill="black" stroke="black" points="325.16,-113.73 316.18,-108.1 319.7,-118.1 325.16,-113.73"/>
</g>
<!-- mulle&#45;utf -->
<g id="node8" class="node">
<title>mulle&#45;utf</title>
<g id="a_node8"><a xlink:href="https://github.com/mulle-c/mulle-utf" xlink:title="mulle&#45;utf">
<polygon fill="lightgrey" stroke="black" points="456,-108 375,-108 375,-72 456,-72 456,-108"/>
<text text-anchor="middle" x="415.5" y="-86.3" font-family="Times,serif" font-size="14.00">mulle&#45;utf</text>
</a>
</g>
</g>
<!-- mulle&#45;sprintf&#45;&gt;mulle&#45;utf -->
<g id="edge6" class="edge">
<title>mulle&#45;sprintf&#45;&gt;mulle&#45;utf</title>
<path fill="none" stroke="black" d="M372.59,-143.7C379.42,-135.3 387.76,-125.07 395.26,-115.86"/>
<polygon fill="black" stroke="black" points="397.97,-118.07 401.57,-108.1 392.54,-113.65 397.97,-118.07"/>
</g>
<!-- mulle&#45;vararg -->
<g id="node9" class="node">
<title>mulle&#45;vararg</title>
<g id="a_node9"><a xlink:href="https://github.com/mulle-c/mulle-vararg" xlink:title="mulle&#45;vararg">
<polygon fill="lightgrey" stroke="black" points="582.5,-108 474.5,-108 474.5,-72 582.5,-72 582.5,-108"/>
<text text-anchor="middle" x="528.5" y="-86.3" font-family="Times,serif" font-size="14.00">mulle&#45;vararg</text>
</a>
</g>
</g>
<!-- mulle&#45;sprintf&#45;&gt;mulle&#45;vararg -->
<g id="edge7" class="edge">
<title>mulle&#45;sprintf&#45;&gt;mulle&#45;vararg</title>
<path fill="none" stroke="black" d="M400.09,-143.88C423.53,-134.22 453,-122.09 477.8,-111.88"/>
<polygon fill="black" stroke="black" points="479.13,-115.11 487.05,-108.07 476.47,-108.64 479.13,-115.11"/>
</g>
<!-- mulle&#45;thread&#45;&gt;mintomic -->
<g id="edge8" class="edge">
<title>mulle&#45;thread&#45;&gt;mintomic</title>
<path fill="none" stroke="black" d="M302.5,-71.7C302.5,-63.98 302.5,-54.71 302.5,-46.11"/>
<polygon fill="black" stroke="black" points="306,-46.1 302.5,-36.1 299,-46.1 306,-46.1"/>
</g>
</g>
</svg>
